<svg width="24" height="24" viewBox="0 0 24 24" fill="none" xmlns="http://www.w3.org/2000/svg">
<path fill-rule="evenodd" clip-rule="evenodd" d="M18.5093 8.33547C18.6397 7.84856 18.1903 7.40489 17.7051 7.5416L6.69498 10.6438C6.11909 10.806 6.04977 11.5944 6.58852 11.8547L10.6735 13.8281C11.0979 14.0331 11.4508 14.361 11.6864 14.7691L14.3845 19.4422C14.674 19.9437 15.4254 19.8448 15.5752 19.2855L18.5093 8.33547ZM17.2441 5.90531C18.9983 5.41106 20.623 7.0151 20.1514 8.77546L17.2173 19.7254C16.6754 21.7477 13.959 22.1053 12.9122 20.2922L10.2142 15.6191C10.149 15.5062 10.0514 15.4155 9.93403 15.3588L5.84905 13.3854C3.90126 12.4445 4.15185 9.59413 6.23395 9.00748L17.2441 5.90531Z" fill="#1F1F21"/>
<path fill-rule="evenodd" clip-rule="evenodd" d="M10.4294 15.9228C10.0895 15.599 10.0765 15.0609 10.4003 14.721L18.2276 6.50452L19.4585 7.67709L11.6311 15.8936C11.3073 16.2335 10.7693 16.2466 10.4294 15.9228Z" fill="#1F1F21"/>
</svg>
