<svg width="68" height="24" viewBox="0 0 68 24" fill="none" xmlns="http://www.w3.org/2000/svg">
<path fill-rule="evenodd" clip-rule="evenodd" d="M11.9948 20.8133C11.5253 20.8133 11.1448 20.4327 11.1448 19.9633L11.1448 6.68587C11.1448 6.21642 11.5253 5.83587 11.9948 5.83587C12.4642 5.83587 12.8448 6.21642 12.8448 6.68587L12.8448 19.9633C12.8448 20.4327 12.4642 20.8133 11.9948 20.8133Z" fill="black"/>
<path fill-rule="evenodd" clip-rule="evenodd" d="M6.4147 10.603C6.08275 10.271 6.08275 9.73286 6.4147 9.40091L10.7096 5.10606C11.432 4.38359 12.6034 4.38359 13.3258 5.10606L17.601 9.38123C17.933 9.71318 17.933 10.2514 17.601 10.5833C17.2691 10.9153 16.7309 10.9153 16.3989 10.5833L12.1238 6.30814C12.0652 6.24956 11.9702 6.24956 11.9116 6.30814L7.61678 10.603C7.28484 10.9349 6.74665 10.9349 6.4147 10.603Z" fill="black"/>
<path fill-rule="evenodd" clip-rule="evenodd" d="M55.9947 4.14996C55.5252 4.14996 55.1447 4.53052 55.1447 4.99996L55.1447 18.2774C55.1447 18.7468 55.5252 19.1274 55.9947 19.1274C56.4641 19.1274 56.8447 18.7468 56.8447 18.2774L56.8447 4.99996C56.8447 4.53052 56.4641 4.14996 55.9947 4.14996Z" fill="black"/>
<path fill-rule="evenodd" clip-rule="evenodd" d="M50.4146 14.3603C50.0826 14.6922 50.0826 15.2304 50.4146 15.5623L54.7094 19.8572C55.4319 20.5797 56.6033 20.5797 57.3257 19.8572L61.6009 15.582C61.9328 15.2501 61.9328 14.7119 61.6009 14.3799C61.2689 14.048 60.7308 14.048 60.3988 14.3799L56.1236 18.6551C56.0651 18.7137 55.9701 18.7137 55.9115 18.6551L51.6167 14.3603C51.2847 14.0283 50.7465 14.0283 50.4146 14.3603Z" fill="black"/>
</svg>
