<svg width="24" height="24" viewBox="0 0 24 24" fill="none" xmlns="http://www.w3.org/2000/svg">
<path fill-rule="evenodd" clip-rule="evenodd" d="M7.99246 16.8422C7.52301 16.8422 7.14246 16.4616 7.14246 15.9922L7.14246 8.01313C7.14246 7.54368 7.52301 7.16313 7.99246 7.16313C8.4619 7.16313 8.84246 7.54368 8.84246 8.01313L8.84246 15.9922C8.84246 16.4616 8.4619 16.8422 7.99246 16.8422Z" fill="#1F1F21"/>
<path fill-rule="evenodd" clip-rule="evenodd" d="M4.39895 10.607C4.06701 10.275 4.06701 9.73683 4.39895 9.40488L6.69776 7.10607C7.42023 6.3836 8.59159 6.3836 9.31406 7.10607L11.601 9.39305C11.933 9.725 11.933 10.2632 11.601 10.5951C11.2691 10.9271 10.7309 10.9271 10.399 10.5951L8.11197 8.30815C8.0534 8.24957 7.95842 8.24957 7.89984 8.30815L5.60103 10.607C5.26909 10.9389 4.7309 10.9389 4.39895 10.607Z" fill="#1F1F21"/>
<path fill-rule="evenodd" clip-rule="evenodd" d="M15.9925 7.15784C15.523 7.15784 15.1425 7.53839 15.1425 8.00784L15.1425 15.9869C15.1425 16.4563 15.523 16.8369 15.9925 16.8369C16.4619 16.8369 16.8425 16.4563 16.8425 15.9869L16.8425 8.00784C16.8425 7.53839 16.4619 7.15784 15.9925 7.15784Z" fill="#1F1F21"/>
<path fill-rule="evenodd" clip-rule="evenodd" d="M12.399 13.393C12.067 13.725 12.067 14.2632 12.399 14.5951L14.6978 16.8939C15.4202 17.6164 16.5916 17.6164 17.3141 16.8939L19.601 14.6069C19.933 14.275 19.933 13.7368 19.601 13.4049C19.2691 13.0729 18.7309 13.0729 18.399 13.4049L16.112 15.6918C16.0534 15.7504 15.9584 15.7504 15.8998 15.6918L13.601 13.393C13.2691 13.0611 12.7309 13.0611 12.399 13.393Z" fill="#1F1F21"/>
</svg>
