<svg width="24" height="24" viewBox="0 0 24 24" fill="none" xmlns="http://www.w3.org/2000/svg">
<path fill-rule="evenodd" clip-rule="evenodd" d="M12 11.85C11.5306 11.85 11.15 11.4694 11.15 11L11.15 2.99998C11.15 2.53053 11.5306 2.14997 12 2.14997C12.4695 2.14997 12.85 2.53053 12.85 2.99998L12.85 11C12.85 11.4694 12.4695 11.85 12 11.85Z" fill="white"/>
<path fill-rule="evenodd" clip-rule="evenodd" d="M8.39901 5.59909C8.06707 5.26714 8.06707 4.72895 8.39901 4.39701L10.7057 2.0903C11.4282 1.36783 12.5995 1.36783 13.322 2.0903L15.6169 4.38515C15.9488 4.71709 15.9488 5.25528 15.6169 5.58723C15.2849 5.91917 14.7467 5.91917 14.4148 5.58723L12.1199 3.29238C12.0614 3.2338 11.9664 3.2338 11.9078 3.29238L9.6011 5.59909C9.26915 5.93103 8.73096 5.93103 8.39901 5.59909Z" fill="white"/>
<path fill-rule="evenodd" clip-rule="evenodd" d="M9.00002 8.85002C7.26033 8.85002 5.85002 10.2603 5.85002 12V16C5.85002 17.7397 7.26033 19.15 9.00002 19.15H15.5C17.2397 19.15 18.65 17.7397 18.65 16V12C18.65 10.2603 17.2397 8.85002 15.5 8.85002H14.3215C13.852 8.85002 13.4715 8.46947 13.4715 8.00002C13.4715 7.53058 13.852 7.15002 14.3215 7.15002H15.5C18.1786 7.15002 20.35 9.32144 20.35 12V16C20.35 18.6786 18.1786 20.85 15.5 20.85H9.00002C6.32144 20.85 4.15002 18.6786 4.15002 16V12C4.15002 9.32144 6.32144 7.15002 9.00002 7.15002H9.66074C10.1302 7.15002 10.5107 7.53058 10.5107 8.00002C10.5107 8.46947 10.1302 8.85002 9.66074 8.85002H9.00002Z" fill="white"/>
</svg>
