<svg width="32" height="32" viewBox="0 0 32 32" fill="none" xmlns="http://www.w3.org/2000/svg">
<path fill-rule="evenodd" clip-rule="evenodd" d="M16 28C9.37258 28 4 22.6274 4 16C4 9.37258 9.37258 4 16 4C22.6274 4 28 9.37258 28 16C28 22.6274 22.6274 28 16 28ZM16 9.53333C16.6259 9.53333 17.1333 10.0407 17.1333 10.6667V14.8667H21.3333C21.9593 14.8667 22.4667 15.3741 22.4667 16C22.4667 16.6259 21.9593 17.1333 21.3333 17.1333H17.1333V21.3333C17.1333 21.9593 16.6259 22.4667 16 22.4667C15.3741 22.4667 14.8667 21.9593 14.8667 21.3333V17.1333H10.6667C10.0407 17.1333 9.53333 16.6259 9.53333 16C9.53333 15.3741 10.0407 14.8667 10.6667 14.8667H14.8667V10.6667C14.8667 10.0407 15.3741 9.53333 16 9.53333Z" fill="#1F1F21"/>
</svg>
