<svg width="24" height="24" viewBox="0 0 24 24" fill="none" xmlns="http://www.w3.org/2000/svg">
<path fill-rule="evenodd" clip-rule="evenodd" d="M7.44817 4.15716C6.46548 4.15716 5.66886 4.98223 5.66886 6.00001V14.5714C5.66886 15.5892 6.46548 16.4143 7.44817 16.4143H12.4137C13.3964 16.4143 14.193 15.5892 14.193 14.5714V7.28573C14.193 6.70567 13.9293 6.15947 13.4813 5.81144L11.8261 4.52573C11.5181 4.28648 11.1435 4.15716 10.7585 4.15716H7.44817ZM4.26196 6.00001C4.26196 4.17747 5.68848 2.70001 7.44817 2.70001H10.7585C11.4479 2.70001 12.1187 2.9316 12.6702 3.36001L14.3254 4.64573C15.1277 5.26895 15.5999 6.24703 15.5999 7.28573V14.5714C15.5999 16.394 14.1734 17.8714 12.4137 17.8714H7.44817C5.68848 17.8714 4.26196 16.394 4.26196 14.5714V6.00001Z" fill="white"/>
<path fill-rule="evenodd" clip-rule="evenodd" d="M11.5861 7.58571C10.6034 7.58571 9.8068 8.41079 9.8068 9.42857V18C9.8068 19.0178 10.6034 19.8429 11.5861 19.8429H16.5516C17.5343 19.8429 18.3309 19.0178 18.3309 18V10.7143C18.3309 10.1342 18.0673 9.58803 17.6192 9.24L15.964 7.95428C15.656 7.71504 15.2814 7.58571 14.8965 7.58571H11.5861ZM8.3999 9.42857C8.3999 7.60603 9.82642 6.12857 11.5861 6.12857H14.8965C15.5859 6.12857 16.2567 6.36016 16.8082 6.78857L18.4633 8.07428C19.2657 8.6975 19.7378 9.67559 19.7378 10.7143V18C19.7378 19.8225 18.3113 21.3 16.5516 21.3H11.5861C9.82642 21.3 8.3999 19.8225 8.3999 18V9.42857Z" fill="white"/>
<path d="M9.5 16.5V8.5L10.5 7H14.5V15L14 16.5H9.5Z" fill="white"/>
</svg>
