<svg width="24" height="24" viewBox="0 0 24 24" fill="none" xmlns="http://www.w3.org/2000/svg">
<path fill-rule="evenodd" clip-rule="evenodd" d="M8.17575 15.85C7.51002 15.85 6.86141 16.0609 6.32301 16.4525L5.47399 17.07C4.57326 17.7251 5.03664 19.15 6.15039 19.15H15.8497C16.9634 19.15 17.4268 17.7251 16.526 17.07L15.677 16.4525C15.1386 16.0609 14.49 15.85 13.8243 15.85H8.17575ZM5.32312 15.0777C6.15208 14.4748 7.15074 14.15 8.17575 14.15H13.8243C14.8493 14.15 15.848 14.4748 16.6769 15.0777L17.5259 15.6951C19.7582 17.3186 18.6098 20.85 15.8497 20.85H6.15039C3.39022 20.85 2.24185 17.3186 4.4741 15.6951L5.32312 15.0777Z" fill="white"/>
<path fill-rule="evenodd" clip-rule="evenodd" d="M20 8.15002C20.4695 8.15002 20.85 8.53058 20.85 9.00002V15C20.85 15.4695 20.4695 15.85 20 15.85C19.5306 15.85 19.15 15.4695 19.15 15V9.00002C19.15 8.53058 19.5306 8.15002 20 8.15002Z" fill="white"/>
<path fill-rule="evenodd" clip-rule="evenodd" d="M16.15 12C16.15 11.5306 16.5306 11.15 17 11.15H23C23.4695 11.15 23.85 11.5306 23.85 12C23.85 12.4695 23.4695 12.85 23 12.85H17C16.5306 12.85 16.15 12.4695 16.15 12Z" fill="white"/>
<path fill-rule="evenodd" clip-rule="evenodd" d="M11 4.85002C9.26033 4.85002 7.85002 6.26033 7.85002 8.00002C7.85002 9.73972 9.26033 11.15 11 11.15C12.7397 11.15 14.15 9.73972 14.15 8.00002C14.15 6.26033 12.7397 4.85002 11 4.85002ZM6.15002 8.00002C6.15002 5.32144 8.32144 3.15002 11 3.15002C13.6786 3.15002 15.85 5.32144 15.85 8.00002C15.85 10.6786 13.6786 12.85 11 12.85C8.32144 12.85 6.15002 10.6786 6.15002 8.00002Z" fill="white"/>
</svg>
