<svg width="24" height="24" viewBox="0 0 24 24" fill="none" xmlns="http://www.w3.org/2000/svg">
<path fill-rule="evenodd" clip-rule="evenodd" d="M8.25595 4.48547C9.15751 3.62811 10.3541 3.15 11.5982 3.15H12.4016C13.6457 3.15 14.8423 3.62811 15.7439 4.48547L19.3421 7.90738C20.3049 8.82293 20.8499 10.0933 20.8499 11.4219V16C20.8499 18.6786 18.6785 20.85 15.9999 20.85H7.9999C5.32132 20.85 3.1499 18.6786 3.1499 16V11.4219C3.1499 10.0933 3.69491 8.82293 4.65766 7.90738L8.25595 4.48547ZM11.5982 4.85C10.7902 4.85 10.013 5.16053 9.42746 5.71737L5.82917 9.13928C5.20388 9.73391 4.8499 10.559 4.8499 11.4219V16C4.8499 17.7397 6.26021 19.15 7.9999 19.15H15.9999C17.7396 19.15 19.1499 17.7397 19.1499 16V11.4219C19.1499 10.559 18.7959 9.73391 18.1706 9.13928L14.5723 5.71737C13.9868 5.16053 13.2097 4.85 12.4016 4.85H11.5982Z" fill="black"/>
<path fill-rule="evenodd" clip-rule="evenodd" d="M9.1499 16C9.1499 15.5306 9.53046 15.15 9.9999 15.15H13.9999C14.4693 15.15 14.8499 15.5306 14.8499 16C14.8499 16.4694 14.4693 16.85 13.9999 16.85H9.9999C9.53046 16.85 9.1499 16.4694 9.1499 16Z" fill="black"/>
</svg>
