<svg width="24" height="24" viewBox="0 0 24 24" fill="none" xmlns="http://www.w3.org/2000/svg">
<path fill-rule="evenodd" clip-rule="evenodd" d="M4 9C4 6.79086 5.79086 5 8 5H16C18.0052 5 19.6658 6.47549 19.9553 8.4H16C14.5641 8.4 13.4 9.56406 13.4 11V13C13.4 14.4359 14.5641 15.6 16 15.6H19.9553C19.6658 17.5245 18.0052 19 16 19H8C5.79086 19 4 17.2091 4 15V9ZM20 9.6V14.4H16C15.2268 14.4 14.6 13.7732 14.6 13V11C14.6 10.2268 15.2268 9.6 16 9.6H20ZM18 12C18 12.5523 17.5523 13 17 13C16.4477 13 16 12.5523 16 12C16 11.4477 16.4477 11 17 11C17.5523 11 18 11.4477 18 12Z" fill="white"/>
</svg>
